<?xml version="1.0" standalone="no"?>
<!DOCTYPE svg PUBLIC "-//W3C//DTD SVG 20010904//EN"
 "http://www.w3.org/TR/2001/REC-SVG-20010904/DTD/svg10.dtd">
<svg version="1.0" xmlns="http://www.w3.org/2000/svg"
 width="1600.000000pt" height="1600.000000pt" viewBox="0 0 1600.000000 1600.000000"
 preserveAspectRatio="xMidYMid meet">

<g transform="translate(0.000000,1600.000000) scale(0.100000,-0.100000)"
fill="#000000" stroke="none">
<path d="M0 8000 l0 -8000 8000 0 8000 0 0 8000 0 8000 -8000 0 -8000 0 0
-8000z m7705 2191 c7 -12 -12 -24 -25 -16 -11 7 -4 25 10 25 5 0 11 -4 15 -9z
m-693 -103 c-6 -6 -15 -9 -18 -5 -4 3 -4 14 0 23 5 13 9 15 18 6 9 -9 9 -15 0
-24z m1208 6 c0 -16 -16 -19 -25 -4 -8 13 4 32 16 25 5 -4 9 -13 9 -21z m512
-6 c-6 -6 -15 -9 -18 -5 -4 3 -4 14 0 23 5 13 9 15 18 6 9 -9 9 -15 0 -24z
m438 6 c0 -16 -16 -19 -25 -4 -8 13 4 32 16 25 5 -4 9 -13 9 -21z m600 6 c0
-11 -4 -20 -9 -20 -14 0 -23 18 -16 30 10 17 25 11 25 -10z m-1980 -6 c0 -17
-22 -14 -28 4 -2 7 3 12 12 12 9 0 16 -7 16 -16z m-1131 -85 c-16 -10 -23 -4
-14 10 3 6 11 8 17 5 6 -4 5 -9 -3 -15z m271 7 c0 -8 -4 -17 -9 -21 -12 -7
-24 12 -16 25 9 15 25 12 25 -4z m945 -4 c0 -18 -20 -15 -23 4 -3 10 1 15 10
12 7 -3 13 -10 13 -16z m605 4 c0 -8 -4 -17 -9 -21 -12 -7 -24 12 -16 25 9 15
25 12 25 -4z m85 -4 c0 -18 -20 -15 -23 4 -3 10 1 15 10 12 7 -3 13 -10 13
-16z m261 7 c8 -14 -18 -31 -30 -19 -9 9 0 30 14 30 5 0 12 -5 16 -11z m170
-1 c4 -7 3 -8 -4 -4 -7 4 -12 2 -12 -5 0 -7 -3 -10 -6 -6 -6 5 3 27 11 27 2 0
7 -5 11 -12z m859 -6 c0 -18 -20 -15 -23 4 -3 10 1 15 10 12 7 -3 13 -10 13
-16z m-2355 -66 c0 -2 -13 -6 -29 -8 -17 -2 -28 -1 -25 4 5 8 54 12 54 4z
m1412 -14 c7 -7 19 -12 28 -12 25 -1 108 -67 145 -118 49 -67 73 -174 56 -256
-23 -112 -82 -190 -184 -243 -49 -26 -61 -28 -197 -30 -96 -2 -138 0 -123 7
21 9 22 13 25 262 3 193 0 258 -10 276 -7 12 -8 22 -3 22 5 0 11 22 13 49 3
47 2 48 -25 49 -18 0 -25 -3 -20 -11 5 -9 3 -9 -8 -1 -8 7 -23 14 -34 17 -11
4 58 5 153 3 116 -1 176 -6 184 -14z m-2070 -7 c0 -5 -5 -11 -11 -13 -6 -2
-11 4 -11 13 0 9 5 15 11 13 6 -2 11 -8 11 -13z m2326 3 c-6 -18 -28 -21 -28
-4 0 9 7 16 16 16 9 0 14 -5 12 -12z m2 -89 c0 -5 -7 -9 -15 -9 -15 0 -20 12
-9 23 8 8 24 -1 24 -14z m80 1 c0 -5 -4 -10 -10 -10 -5 0 -10 5 -10 10 0 6 5
10 10 10 6 0 10 -4 10 -10z m440 0 c0 -5 -7 -10 -15 -10 -8 0 -15 5 -15 10 0
6 7 10 15 10 8 0 15 -4 15 -10z m170 0 c0 -5 -7 -10 -15 -10 -8 0 -15 5 -15
10 0 6 7 10 15 10 8 0 15 -4 15 -10z m-3185 -79 c7 -12 -12 -24 -25 -16 -11 7
-4 25 10 25 5 0 11 -4 15 -9z m2665 -7 c0 -17 -22 -14 -28 4 -2 7 3 12 12 12
9 0 16 -7 16 -16z m430 1 c0 -8 -4 -15 -10 -15 -5 0 -10 7 -10 15 0 8 5 15 10
15 6 0 10 -7 10 -15z m-2670 -91 c0 -16 -16 -19 -25 -4 -8 13 4 32 16 25 5 -4
9 -13 9 -21z m2410 0 c0 -16 -16 -19 -25 -4 -8 13 4 32 16 25 5 -4 9 -13 9
-21z m252 2 c7 4 8 2 4 -5 -9 -13 -26 -5 -25 12 0 9 2 8 6 -1 2 -6 10 -9 15
-6z m-80 -81 c0 -5 -5 -11 -11 -13 -6 -2 -11 4 -11 13 0 9 5 15 11 13 6 -2 11
-8 11 -13z m88 1 c0 -8 -4 -17 -9 -21 -12 -7 -24 12 -16 25 9 15 25 12 25 -4z
m-2750 -91 c0 -8 -7 -15 -15 -15 -8 0 -15 7 -15 15 0 8 7 15 15 15 8 0 15 -7
15 -15z m2580 0 c0 -8 -7 -15 -15 -15 -8 0 -15 7 -15 15 0 8 7 15 15 15 8 0
15 -7 15 -15z m0 -170 c0 -8 -7 -15 -15 -15 -8 0 -15 7 -15 15 0 8 7 15 15 15
8 0 15 -7 15 -15z m-2922 -87 c-3 -7 -11 -13 -18 -13 -7 0 -15 6 -17 13 -3 7
4 12 17 12 13 0 20 -5 18 -12z m1540 1 c-2 -6 -8 -10 -13 -10 -5 0 -11 4 -13
10 -2 6 4 11 13 11 9 0 15 -5 13 -11z m180 -1 c-3 -7 -11 -13 -18 -13 -7 0
-15 6 -17 13 -3 7 4 12 17 12 13 0 20 -5 18 -12z m854 -3 c0 -5 -5 -11 -11
-13 -6 -2 -11 4 -11 13 0 9 5 15 11 13 6 -2 11 -8 11 -13z m176 4 c-2 -6 -8
-10 -13 -10 -5 0 -11 4 -13 10 -2 6 4 11 13 11 9 0 15 -5 13 -11z m83 -4 c-1
-15 -24 -12 -29 3 -3 9 2 13 12 10 10 -1 17 -7 17 -13z m257 4 c-2 -6 -8 -10
-13 -10 -5 0 -11 4 -13 10 -2 6 4 11 13 11 9 0 15 -5 13 -11z m-1458 -84 c0
-8 -7 -15 -15 -15 -8 0 -15 7 -15 15 0 8 7 15 15 15 8 0 15 -7 15 -15z m600 0
c0 -8 -7 -15 -15 -15 -16 0 -20 12 -8 23 11 12 23 8 23 -8z m778 -3 c2 -7 -3
-12 -12 -12 -9 0 -16 7 -16 16 0 17 22 14 28 -4z m-1208 -87 c0 -8 -7 -15 -15
-15 -8 0 -15 7 -15 15 0 8 7 15 15 15 8 0 15 -7 15 -15z m430 0 c0 -8 -7 -15
-15 -15 -8 0 -15 7 -15 15 0 8 7 15 15 15 8 0 15 -7 15 -15z m340 0 c0 -8 -4
-15 -10 -15 -5 0 -10 7 -10 15 0 8 5 15 10 15 6 0 10 -7 10 -15z m-2405 -85
c0 -7 -6 -15 -12 -17 -8 -3 -13 4 -13 17 0 13 5 20 13 18 6 -3 12 -11 12 -18z
m1030 2 c0 -18 -20 -15 -23 4 -3 10 1 15 10 12 7 -3 13 -10 13 -16z m687 -14
c-6 -6 -15 -9 -18 -5 -4 3 -4 14 0 23 5 13 9 15 18 6 9 -9 9 -15 0 -24z m603
2 c-5 -8 -11 -8 -17 -2 -6 6 -7 16 -3 22 5 8 11 8 17 2 6 -6 7 -16 3 -22z
m603 -1 c-3 -8 -7 -3 -11 10 -4 17 -3 21 5 13 5 -5 8 -16 6 -23z m-770 -77 c2
-7 -3 -12 -12 -12 -9 0 -16 7 -16 16 0 17 22 14 28 -4z m517 8 c3 -6 -1 -13
-10 -16 -19 -8 -30 0 -20 15 8 14 22 14 30 1z m85 -11 c0 -5 -7 -9 -15 -9 -15
0 -20 12 -9 23 8 8 24 -1 24 -14z m-1720 -85 c0 -17 -22 -14 -28 4 -2 7 3 12
12 12 9 0 16 -7 16 -16z m85 7 c7 -12 -12 -24 -25 -16 -11 7 -4 25 10 25 5 0
11 -4 15 -9z m515 -7 c0 -17 -22 -14 -28 4 -2 7 3 12 12 12 9 0 16 -7 16 -16z
m170 1 c0 -8 -4 -15 -10 -15 -5 0 -10 7 -10 15 0 8 5 15 10 15 6 0 10 -7 10
-15z m1120 0 c0 -8 -4 -15 -9 -15 -13 0 -22 16 -14 24 11 11 23 6 23 -9z
m-860 -86 c0 -5 -7 -9 -15 -9 -15 0 -20 12 -9 23 8 8 24 -1 24 -14z m-510 1
c0 -5 -9 -10 -20 -10 -11 0 -20 5 -20 10 0 6 9 10 20 10 11 0 20 -4 20 -10z
m340 0 c0 -5 -7 -10 -15 -10 -8 0 -15 5 -15 10 0 6 7 10 15 10 8 0 15 -4 15
-10z m430 0 c0 -5 -7 -10 -15 -10 -8 0 -15 5 -15 10 0 6 7 10 15 10 8 0 15 -4
15 -10z m345 0 c-3 -5 -13 -10 -21 -10 -8 0 -14 5 -14 10 0 6 9 10 21 10 11 0
17 -4 14 -10z m255 0 c0 -5 -7 -10 -15 -10 -8 0 -15 5 -15 10 0 6 7 10 15 10
8 0 15 -4 15 -10z m-860 -85 c0 -8 -7 -15 -15 -15 -8 0 -15 7 -15 15 0 8 7 15
15 15 8 0 15 -7 15 -15z m518 3 c-6 -18 -28 -21 -28 -4 0 9 7 16 16 16 9 0 14
-5 12 -12z m-1293 -98 c-5 -8 -11 -8 -17 -2 -6 6 -7 16 -3 22 5 8 11 8 17 2 6
-6 7 -16 3 -22z m1290 0 c-5 -8 -11 -8 -17 -2 -6 6 -7 16 -3 22 5 8 11 8 17 2
6 -6 7 -16 3 -22z m340 0 c-5 -8 -11 -8 -17 -2 -6 6 -7 16 -3 22 5 8 11 8 17
2 6 -6 7 -16 3 -22z m87 -2 c-6 -6 -15 -9 -18 -5 -4 3 -4 14 0 23 5 13 9 15
18 6 9 -9 9 -15 0 -24z m-602 13 c0 -6 -4 -13 -10 -16 -5 -3 -10 1 -10 9 0 9
5 16 10 16 6 0 10 -4 10 -9z m88 -2 c-2 -6 -8 -10 -13 -10 -5 0 -11 4 -13 10
-2 6 4 11 13 11 9 0 15 -5 13 -11z m-2663 -79 c3 -6 -1 -13 -10 -16 -19 -8
-30 0 -20 15 8 14 22 14 30 1z m85 -5 c0 -8 -4 -15 -9 -15 -5 0 -11 7 -15 15
-3 9 0 15 9 15 8 0 15 -7 15 -15z m1720 0 c0 -8 -7 -15 -15 -15 -16 0 -20 12
-8 23 11 12 23 8 23 -8z m345 6 c7 -12 -12 -24 -25 -16 -11 7 -4 25 10 25 5 0
11 -4 15 -9z m345 -6 c0 -8 -7 -15 -15 -15 -16 0 -20 12 -8 23 11 12 23 8 23
-8z m251 2 c-1 -12 -15 -9 -19 4 -3 6 1 10 8 8 6 -3 11 -8 11 -12z m264 4 c3
-5 1 -12 -5 -16 -5 -3 -10 1 -10 9 0 18 6 21 15 7z m-860 -90 c7 -12 -12 -24
-25 -16 -11 7 -4 25 10 25 5 0 11 -4 15 -9z m162 -6 c0 -8 -4 -15 -9 -15 -4 0
-8 7 -8 15 0 8 4 15 8 15 5 0 9 -7 9 -15z m259 -92 c-10 -10 -19 5 -10 18 6
11 8 11 12 0 2 -7 1 -15 -2 -18z m524 13 c0 -8 -4 -17 -9 -21 -12 -7 -24 12
-16 25 9 15 25 12 25 -4z m-2670 -176 c0 -5 -7 -10 -16 -10 -8 0 -12 5 -9 10
3 6 10 10 16 10 5 0 9 -4 9 -10z m2330 0 c0 -5 -7 -10 -15 -10 -8 0 -15 5 -15
10 0 6 7 10 15 10 8 0 15 -4 15 -10z m-2245 -270 c-5 -8 -11 -8 -17 -2 -6 6
-7 16 -3 22 5 8 11 8 17 2 6 -6 7 -16 3 -22z m2151 18 c5 -7 3 -8 -6 -3 -10 6
-12 4 -6 -11 5 -14 4 -16 -5 -7 -6 6 -8 16 -5 22 9 14 13 14 22 -1z m264 -14
c0 -16 -16 -19 -25 -4 -8 13 4 32 16 25 5 -4 9 -13 9 -21z m-172 -83 c3 -8 -1
-12 -9 -9 -7 2 -15 10 -17 17 -3 8 1 12 9 9 7 -2 15 -10 17 -17z m87 9 c3 -6
-1 -13 -10 -16 -19 -8 -30 0 -20 15 8 14 22 14 30 1z m343 -8 c2 -7 -3 -12
-12 -12 -9 0 -16 7 -16 16 0 17 22 14 28 -4z m-2410 -83 c-2 -6 -8 -10 -13
-10 -5 0 -11 4 -13 10 -2 6 4 11 13 11 9 0 15 -5 13 -11z m262 2 c0 -5 -7 -11
-15 -15 -9 -3 -15 0 -15 9 0 8 7 15 15 15 8 0 15 -4 15 -9z m1630 -7 c0 -17
-22 -14 -28 4 -2 7 3 12 12 12 9 0 16 -7 16 -16z m-2322 -82 c2 -7 -3 -12 -12
-12 -9 0 -16 7 -16 16 0 17 22 14 28 -4z m347 8 c3 -6 -1 -13 -10 -16 -19 -8
-30 0 -20 15 8 14 22 14 30 1z m246 -13 c-13 -13 -26 -3 -16 12 3 6 11 8 17 5
6 -4 6 -10 -1 -17z m521 8 c0 -5 -5 -11 -11 -13 -6 -2 -11 4 -11 13 0 9 5 15
11 13 6 -2 11 -8 11 -13z m88 0 c0 -8 -7 -15 -15 -15 -16 0 -20 12 -8 23 11
12 23 8 23 -8z m339 -14 c-15 -5 -22 6 -14 19 6 9 10 9 16 -1 5 -8 4 -15 -2
-18z m869 11 c2 -7 -3 -12 -12 -12 -9 0 -16 7 -16 16 0 17 22 14 28 -4z m-111
-57 c0 -8 -4 -12 -9 -9 -5 3 -6 10 -3 15 9 13 12 11 12 -6z m-2037 -24 c0 -14
-18 -23 -30 -16 -6 4 -8 11 -5 16 8 12 35 12 35 0z m422 -6 c0 -5 -5 -11 -11
-13 -6 -2 -11 4 -11 13 0 9 5 15 11 13 6 -2 11 -8 11 -13z m88 5 c0 -5 -7 -10
-15 -10 -8 0 -15 5 -15 10 0 6 7 10 15 10 8 0 15 -4 15 -10z m166 -17 c-10
-10 -19 5 -10 18 6 11 8 11 12 0 2 -7 1 -15 -2 -18z m176 12 c0 -5 -5 -11 -11
-13 -6 -2 -11 4 -11 13 0 9 5 15 11 13 6 -2 11 -8 11 -13z m178 0 c0 -8 -7
-15 -15 -15 -8 0 -15 7 -15 15 0 8 7 15 15 15 8 0 15 -7 15 -15z m1021 -12
c-12 -20 -14 -14 -5 12 4 9 9 14 11 11 3 -2 0 -13 -6 -23z m97 15 c-6 -18 -28
-21 -28 -4 0 9 7 16 16 16 9 0 14 -5 12 -12z m170 1 c-2 -6 -8 -10 -13 -10 -5
0 -11 4 -13 10 -2 6 4 11 13 11 9 0 15 -5 13 -11z m82 -4 c0 -8 -4 -15 -10
-15 -5 0 -10 7 -10 15 0 8 5 15 10 15 6 0 10 -7 10 -15z m-2670 -5 c0 -5 -5
-10 -11 -10 -5 0 -7 5 -4 10 3 6 8 10 11 10 2 0 4 -4 4 -10z m2281 -33 c-10
-9 -11 -8 -5 6 3 10 9 15 12 12 3 -3 0 -11 -7 -18z m-1671 -48 c0 -5 -7 -9
-15 -9 -15 0 -20 12 -9 23 8 8 24 -1 24 -14z m950 0 c0 -5 -7 -9 -15 -9 -15 0
-20 12 -9 23 8 8 24 -1 24 -14z m767 -61 c-3 -8 -6 -5 -6 6 -1 11 2 17 5 13 3
-3 4 -12 1 -19z m-2489 -20 c-6 -18 -28 -21 -28 -4 0 9 7 16 16 16 9 0 14 -5
12 -12z m172 -3 c0 -8 -7 -15 -15 -15 -8 0 -15 7 -15 15 0 8 7 15 15 15 8 0
15 -7 15 -15z m942 0 c0 -5 -5 -11 -11 -13 -6 -2 -11 4 -11 13 0 9 5 15 11 13
6 -2 11 -8 11 -13z m1638 7 c0 -13 -12 -22 -22 -16 -10 6 -1 24 13 24 5 0 9
-4 9 -8z m-287 -52 c-3 -12 -8 -19 -11 -16 -5 6 5 36 12 36 2 0 2 -9 -1 -20z
m14 -72 c-3 -7 -5 -2 -5 12 0 14 2 19 5 13 2 -7 2 -19 0 -25z m-2227 -53 c0
-8 -7 -15 -15 -15 -16 0 -20 12 -8 23 11 12 23 8 23 -8z m260 0 c0 -8 -7 -15
-15 -15 -16 0 -20 12 -8 23 11 12 23 8 23 -8z m348 -3 c2 -7 -3 -12 -12 -12
-9 0 -16 7 -16 16 0 17 22 14 28 -4z m82 4 c0 -8 -4 -17 -9 -21 -12 -7 -24 12
-16 25 9 15 25 12 25 -4z m775 -4 c0 -18 -20 -15 -23 4 -3 10 1 15 10 12 7 -3
13 -10 13 -16z m863 0 c2 -7 -3 -12 -12 -12 -9 0 -16 7 -16 16 0 17 22 14 28
-4z m90 0 c2 -7 -6 -12 -17 -12 -21 0 -27 11 -14 24 9 9 26 2 31 -12z m172 -3
c0 -5 -7 -9 -15 -9 -15 0 -20 12 -9 23 8 8 24 -1 24 -14z m80 7 c0 -8 -4 -17
-9 -21 -12 -7 -24 12 -16 25 9 15 25 12 25 -4z m-451 -35 c0 -25 0 -25 -9 -3
-5 12 -14 22 -20 22 -5 0 -10 4 -10 9 0 5 9 7 20 4 14 -4 20 -13 19 -32z m-9
-40 c0 -4 -6 -8 -14 -8 -8 0 -12 6 -9 14 5 13 23 9 23 -6z m-1000 -16 c0 -8
-7 -15 -15 -15 -8 0 -15 7 -15 15 0 8 7 15 15 15 8 0 15 -7 15 -15z m950 -74
c-15 -29 -12 -39 5 -17 20 26 19 15 -2 -28 -15 -32 -18 -34 -29 -18 -19 24
-17 40 2 16 15 -18 15 -18 10 5 -5 22 8 61 20 61 2 0 0 -9 -6 -19z m-2240 -12
c0 -5 -7 -9 -15 -9 -15 0 -20 12 -9 23 8 8 24 -1 24 -14z m770 1 c0 -5 -7 -10
-15 -10 -8 0 -15 5 -15 10 0 6 7 10 15 10 8 0 15 -4 15 -10z m1550 0 c0 -5 -7
-10 -15 -10 -8 0 -15 5 -15 10 0 6 7 10 15 10 8 0 15 -4 15 -10z m512 -85 c0
-5 -5 -11 -11 -13 -6 -2 -11 4 -11 13 0 9 5 15 11 13 6 -2 11 -8 11 -13z
m-597 -5 c-3 -5 -11 -10 -16 -10 -6 0 -7 5 -4 10 3 6 11 10 16 10 6 0 7 -4 4
-10z m-30 -29 c3 -5 2 -12 -3 -15 -5 -3 -9 1 -9 9 0 17 3 19 12 6z m375 -57
c0 -17 -22 -14 -28 4 -2 7 3 12 12 12 9 0 16 -7 16 -16z m-400 3 c0 -2 -9 -12
-19 -21 -14 -13 -21 -14 -27 -5 -4 8 -3 10 5 5 6 -4 14 0 17 8 5 14 24 23 24
13z m-46 -70 c-3 -9 -11 -17 -16 -17 -6 0 -5 6 2 15 6 8 8 20 4 27 -5 10 -4
10 5 2 6 -6 9 -18 5 -27z m-1974 -6 c0 -6 -4 -13 -10 -16 -5 -3 -10 1 -10 9 0
9 5 16 10 16 6 0 10 -4 10 -9z m1940 -47 c0 -8 -19 -13 -24 -6 -3 5 1 9 9 9 8
0 15 -2 15 -3z m-72 -80 c-12 -12 -17 -13 -23 -3 -5 8 -4 10 4 5 6 -4 14 0 17
9 4 9 9 13 12 10 3 -3 -1 -13 -10 -21z m-2288 -145 c0 -5 -7 -9 -15 -9 -15 0
-20 12 -9 23 8 8 24 -1 24 -14z m2840 6 c0 -8 -7 -15 -15 -15 -8 0 -15 7 -15
15 0 8 7 15 15 15 8 0 15 -7 15 -15z m-350 -91 c0 -8 -4 -12 -10 -9 -5 3 -10
10 -10 16 0 5 5 9 10 9 6 0 10 -7 10 -16z m172 -6 c-7 -7 -12 -8 -12 -2 0 14
12 26 19 19 2 -3 -1 -11 -7 -17z m-684 -76 c2 -7 -3 -12 -12 -12 -9 0 -16 7
-16 16 0 17 22 14 28 -4z m-1208 -87 c0 -8 -4 -15 -10 -15 -5 0 -10 7 -10 15
0 8 5 15 10 15 6 0 10 -7 10 -15z m1640 0 c0 -8 -7 -15 -15 -15 -8 0 -15 7
-15 15 0 8 7 15 15 15 8 0 15 -7 15 -15z m260 7 c0 -13 -12 -22 -22 -16 -10 6
-1 24 13 24 5 0 9 -4 9 -8z m170 -7 c0 -8 -7 -15 -15 -15 -8 0 -15 7 -15 15 0
8 7 15 15 15 8 0 15 -7 15 -15z m170 -1 c0 -17 -22 -14 -28 4 -2 7 3 12 12 12
9 0 16 -7 16 -16z m90 6 c0 -5 -7 -10 -15 -10 -8 0 -15 5 -15 10 0 6 7 10 15
10 8 0 15 -4 15 -10z m-3015 -90 c0 -7 -6 -15 -12 -17 -8 -3 -13 4 -13 17 0
13 5 20 13 18 6 -3 12 -11 12 -18z m85 0 c0 -21 -15 -27 -25 -10 -7 12 2 30
16 30 5 0 9 -9 9 -20z m346 9 c3 -6 1 -16 -5 -22 -9 -9 -14 -8 -21 3 -9 15 -4
30 10 30 5 0 12 -5 16 -11z m1289 -9 c0 -7 -6 -15 -12 -17 -8 -3 -13 4 -13 17
0 13 5 20 13 18 6 -3 12 -11 12 -18z m1120 0 c0 -7 -6 -15 -12 -17 -8 -3 -13
4 -13 17 0 13 5 20 13 18 6 -3 12 -11 12 -18z m85 -6 c0 -16 -16 -19 -25 -4
-8 13 4 32 16 25 5 -4 9 -13 9 -21z m928 -3176 c5 -7 56 -129 113 -270 57
-142 106 -258 109 -258 3 0 53 120 111 268 l106 267 58 3 c32 2 62 -1 68 -7 7
-7 -33 -116 -117 -328 -141 -352 -154 -373 -226 -373 -71 0 -84 22 -225 372
-70 174 -124 322 -120 328 9 14 110 13 123 -2z m-620 -10 c16 -16 15 -93 -2
-107 -9 -8 -88 -11 -267 -9 l-254 3 -3 49 c-2 27 -1 55 2 62 7 19 505 21 524
2z m307 -338 l0 -345 -54 -3 c-37 -2 -57 1 -62 10 -5 7 -9 159 -9 339 0 246 3
328 12 337 8 8 33 12 63 10 l50 -3 0 -345z m1596 328 c3 -41 1 -78 -5 -93 -5
-13 -42 -15 -250 -15 -134 0 -251 3 -260 6 -12 5 -16 20 -16 58 0 29 3 56 7
59 3 4 123 7 265 7 l258 0 1 -22z m-8341 -3 c-9 -11 -9 -15 -1 -15 6 0 14 7
17 15 8 19 21 19 21 0 0 -8 -4 -12 -8 -10 -3 3 -13 -3 -20 -12 -12 -15 -12
-16 6 -9 17 6 18 5 7 -6 -19 -18 -47 18 -31 39 6 7 14 13 16 13 3 0 0 -7 -7
-15z m390 3 c0 -10 -57 -11 -63 0 -3 4 10 7 29 8 19 0 34 -3 34 -8z m393 -1
c-13 -5 -23 -14 -23 -19 0 -4 -4 -8 -9 -8 -7 0 -8 26 -2 36 1 1 13 1 29 1 26
0 26 0 5 -10z m287 9 c0 -2 -7 -7 -16 -10 -8 -3 -12 -2 -9 4 6 10 25 14 25 6z
m485 -6 c3 -5 2 -10 -4 -10 -5 0 -13 5 -16 10 -3 6 -2 10 4 10 5 0 13 -4 16
-10z m241 -2 c4 -7 4 -10 -1 -6 -4 4 -14 3 -22 -3 -13 -11 -19 2 -6 14 10 11
21 8 29 -5z m479 2 c3 -5 2 -10 -4 -10 -5 0 -13 5 -16 10 -3 6 -2 10 4 10 5 0
13 -4 16 -10z m225 -2 c0 -9 3 -8 10 2 5 8 12 11 17 7 4 -5 1 -12 -7 -17 -11
-7 -11 -11 -1 -23 9 -12 9 -17 -1 -23 -7 -4 -10 -4 -6 1 4 4 -2 21 -13 36 -11
16 -16 29 -10 29 6 0 11 -6 11 -12z m90 -229 c-1 -126 -5 -231 -8 -233 -4 -2
-6 89 -4 203 4 189 2 211 -14 237 -17 27 -17 28 -1 15 15 -12 17 -12 11 4 -5
13 -4 16 5 11 8 -6 11 -69 11 -237z m434 215 c8 -21 -7 -17 -21 6 -11 16 -10
18 1 14 8 -3 17 -12 20 -20z m51 17 c2 -5 -7 -8 -20 -8 -14 0 -25 2 -25 6 0
10 39 11 45 2z m303 -9 c2 -7 -1 -12 -8 -12 -6 0 -8 5 -5 10 8 13 -1 13 -24
-2 -18 -11 -18 -12 3 -32 12 -12 15 -15 6 -8 -9 6 -20 12 -24 12 -4 0 -4 -6 0
-12 5 -8 1 -7 -10 2 -17 13 -17 15 10 37 30 24 45 25 52 5z m391 -4 c-11 -7
-11 -11 -1 -15 14 -5 17 -59 3 -67 -4 -3 -6 5 -4 18 3 13 -2 35 -12 49 -12 20
-13 26 -3 30 20 7 32 -4 17 -15z m251 18 c0 -2 -7 -7 -16 -10 -8 -3 -12 -2 -9
4 6 10 25 14 25 6z m455 -5 c-6 -4 -26 -11 -45 -14 l-35 -6 30 14 c34 16 64
20 50 6z m308 -2 c20 -5 37 -14 37 -19 0 -6 10 -10 23 -11 21 0 21 -1 2 -9
-28 -12 -37 -12 -29 2 5 7 0 9 -14 6 -14 -4 -19 -2 -16 7 3 8 -9 16 -33 23
-21 5 -31 10 -23 11 8 0 32 -4 53 -10z m417 1 c0 -4 -10 -6 -22 -6 -13 1 -32
-2 -43 -6 -18 -8 -18 -7 -4 4 18 14 69 20 69 8z m97 -12 c13 -12 23 -27 23
-33 0 -12 -44 -14 -56 -2 -5 4 0 5 11 1 16 -6 18 -5 9 7 -15 19 -25 49 -17 49
4 0 17 -10 30 -22z m326 5 c-5 -12 -3 -14 7 -8 10 6 11 4 4 -11 -13 -27 -18
-447 -5 -440 5 4 9 -2 8 -13 0 -11 -5 -17 -9 -15 -12 8 -10 -10 3 -23 8 -8 7
-13 -2 -18 -7 -5 -10 -4 -5 3 3 6 2 13 -4 17 -10 6 -14 501 -4 517 9 14 14 8
7 -9z m57 7 c0 -5 -4 -10 -10 -10 -5 0 -10 5 -10 10 0 6 5 10 10 10 6 0 10 -4
10 -10z m35 0 c3 -5 1 -10 -4 -10 -6 0 -11 5 -11 10 0 6 2 10 4 10 3 0 8 -4
11 -10z m-3441 -32 c-5 -8 -44 13 -44 23 0 4 11 2 24 -4 13 -7 22 -15 20 -19z
m1761 21 c-4 -5 1 -20 11 -32 l18 -22 -23 21 c-20 19 -22 44 -5 44 3 0 2 -5
-1 -11z m61 -9 c12 0 14 -49 14 -310 0 -289 -1 -310 -17 -309 -10 0 -13 3 -6
5 9 4 12 81 13 298 0 251 -2 295 -15 306 -8 7 -15 18 -14 24 0 7 2 6 6 -1 2
-7 11 -13 19 -13z m-1114 -2 c-5 -8 -10 -91 -11 -198 -1 -101 -4 -187 -7 -189
-3 -3 -4 83 -4 191 1 187 4 202 29 207 2 1 -1 -5 -7 -11z m1402 -2 c-7 -18 32
-19 56 -2 13 9 13 9 2 -6 -10 -13 -10 -17 0 -21 7 -3 -4 -3 -24 -1 -26 3 -38
0 -38 -9 0 -8 -3 -8 -9 2 -8 13 -12 13 -28 1 -10 -8 -4 0 12 18 34 36 36 37
29 18z m123 8 c-3 -3 -12 -4 -19 -1 -8 3 -5 6 6 6 11 1 17 -2 13 -5z m210 0
c-3 -3 -12 -4 -19 -1 -8 3 -5 6 6 6 11 1 17 -2 13 -5z m-4307 -8 c0 -2 -7 -7
-16 -10 -8 -3 -12 -2 -9 4 6 10 25 14 25 6z m650 0 c0 -3 -4 -8 -10 -11 -5 -3
-10 -1 -10 4 0 6 5 11 10 11 6 0 10 -2 10 -4z m737 -18 c-3 -8 -6 -5 -6 6 -1
11 2 17 5 13 3 -3 4 -12 1 -19z m1281 -205 c-2 -231 -6 -204 -10 75 -2 83 0
152 5 152 4 0 6 -102 5 -227z m936 212 c3 -8 1 -15 -4 -15 -6 0 -10 7 -10 15
0 8 2 15 4 15 2 0 6 -7 10 -15z m753 9 c-3 -3 -12 -4 -19 -1 -8 3 -5 6 6 6 11
1 17 -2 13 -5z m-3272 -14 c3 -5 1 -10 -4 -10 -6 0 -11 5 -11 10 0 6 2 10 4
10 3 0 8 -4 11 -10z m291 -37 c11 -12 56 -14 233 -11 121 2 214 0 208 -4 -7
-4 -114 -8 -239 -8 l-228 0 1 38 c1 20 4 28 6 18 3 -11 11 -26 19 -33z m2944
37 c0 -5 -5 -10 -11 -10 -5 0 -7 5 -4 10 3 6 8 10 11 10 2 0 4 -4 4 -10z m420
-10 c0 -7 -13 -7 -38 -1 -2 1 -1 5 3 11 6 10 35 2 35 -10z m-4303 -417 c-1
-81 -3 -17 -3 142 0 160 2 226 3 148 2 -78 2 -208 0 -290z m1643 202 l-6 -220
-2 216 c-1 119 1 219 5 222 9 9 9 26 3 -218z m570 221 c0 -2 -9 -6 -20 -9 -11
-3 -18 -1 -14 4 5 9 34 13 34 5z m-3090 -298 c1 -284 1 -286 23 -292 11 -3 26
-1 33 5 14 11 14 -7 1 -28 -5 -8 -3 -13 4 -13 7 0 9 -3 6 -6 -4 -4 -13 -2 -20
4 -8 7 -16 9 -19 6 -3 -3 -9 -1 -13 5 -3 6 0 11 7 12 7 0 3 4 -9 9 l-23 9 0
292 c0 161 2 290 5 288 2 -3 5 -134 5 -291z m429 266 c-9 -11 -8 -14 2 -14 11
0 11 -2 -1 -10 -14 -9 -13 -11 10 -14 6 0 10 -4 10 -8 0 -5 0 -13 0 -19 0 -5
-13 2 -29 18 -26 25 -28 29 -13 41 9 6 12 12 8 12 -4 0 -4 5 -1 10 4 6 11 8
16 4 6 -4 6 -11 -2 -20z m101 4 c8 -13 15 -31 16 -41 1 -16 -1 -16 -22 4 -12
11 -22 30 -21 40 2 25 9 24 27 -3z m2800 -9 c-6 -10 -15 -19 -21 -19 -6 0 -3
7 5 16 9 8 13 20 10 26 -4 7 -2 8 4 4 9 -5 9 -13 2 -27z m435 22 c3 -5 2 -12
-3 -15 -5 -3 -9 1 -9 9 0 17 3 19 12 6z m1057 -23 c-8 -8 -9 -4 -5 13 4 13 8
18 11 10 2 -7 -1 -18 -6 -23z m923 -555 c-8 -32 -115 -60 -139 -35 -4 4 -12 8
-17 8 -5 1 -13 2 -19 3 -5 0 -14 10 -20 21 -9 16 -8 19 6 13 13 -5 15 -3 9 7
-5 9 -4 11 4 6 6 -4 9 -11 6 -16 -7 -11 57 -40 88 -40 29 0 46 18 27 30 -8 5
-7 9 5 13 9 4 13 3 10 -3 -3 -6 -1 -10 5 -10 6 0 8 -5 4 -12 -4 -7 -3 -8 4 -4
6 4 9 14 6 24 -5 14 -4 15 5 2 8 -11 11 67 13 285 l3 300 3 -285 c1 -157 0
-295 -3 -307z m-4158 545 c-7 -4 -25 -7 -42 -7 l-30 1 33 9 c17 5 32 15 32 22
0 8 4 7 10 -3 6 -9 5 -17 -3 -22z m2478 -532 c20 3 20 3 1 -12 -11 -8 -23 -14
-27 -14 -4 0 -7 134 -6 298 l1 297 6 -286 c5 -279 6 -286 25 -283z m-3708 548
c-3 -3 -12 -4 -19 -1 -8 3 -5 6 6 6 11 1 17 -2 13 -5z m728 -3 c3 -5 1 -12 -5
-16 -5 -3 -10 1 -10 9 0 18 6 21 15 7z m1482 -223 c-1 -46 -3 -11 -3 77 0 88
2 125 3 83 2 -42 2 -114 0 -160z m1863 217 c-7 -9 -15 -13 -19 -10 -3 3 1 10
9 15 21 14 24 12 10 -5z m91 5 c5 0 9 -4 9 -10 0 -15 -20 -12 -38 7 -16 16
-16 16 1 10 10 -4 23 -7 28 -7z m244 1 c-17 -7 -16 -9 10 -16 17 -5 35 -9 40
-10 6 0 16 -4 24 -9 10 -7 12 -3 7 15 -3 13 -3 18 0 11 3 -6 9 -10 13 -8 4 3
7 -4 7 -14 0 -10 -3 -18 -6 -18 -21 2 -26 -7 -24 -39 l3 -38 -7 34 c-12 61
-44 75 -171 72 -60 -1 -111 2 -114 6 -3 4 32 7 76 5 45 -2 93 1 107 7 14 5 32
10 40 10 9 0 8 -3 -5 -8z m-4648 -22 c-9 -6 -15 -14 -12 -19 3 -5 0 -12 -6
-16 -8 -5 -9 -3 -4 6 6 10 3 12 -11 6 -11 -4 -7 3 11 18 17 13 32 22 35 19 3
-2 -3 -9 -13 -14z m223 7 c19 -1 -18 -3 -82 -4 -65 -1 -118 1 -118 6 0 6 118
6 200 -2z m170 -20 c22 -26 23 -28 4 -18 -15 8 -24 8 -34 -1 -12 -10 -12 -9
-2 4 7 9 9 25 6 35 -4 11 -5 17 -3 14 2 -3 15 -18 29 -34z m2844 18 c3 -8 2
-12 -3 -9 -6 3 -14 -3 -20 -12 -6 -10 -11 -15 -11 -10 0 6 22 47 26 47 1 0 5
-7 8 -16z m30 1 c3 -8 1 -15 -4 -15 -6 0 -10 7 -10 15 0 8 2 15 4 15 2 0 6 -7
10 -15z m1000 -2 c4 -9 1 -11 -5 -7 -13 8 -30 -16 -22 -29 3 -5 6 -28 8 -51
l2 -41 -13 30 -12 30 -5 -30 c-4 -29 -4 -29 -6 -3 0 15 6 33 14 42 9 9 11 17
5 21 -7 4 -7 12 0 24 5 10 7 20 5 23 -3 3 2 5 10 5 8 0 17 -7 19 -14z m543
-12 c8 -23 8 -28 -2 -25 -13 5 -27 54 -16 54 4 0 12 -13 18 -29z m220 -308
c-1 -65 -3 -14 -3 112 0 127 2 180 3 118 2 -62 2 -165 0 -230z m252 287 c26
-50 20 -52 -14 -3 -14 21 -25 31 -25 24 0 -8 -2 -12 -5 -9 -8 8 6 39 15 33 4
-3 17 -23 29 -45z m-4272 34 c-3 -3 -12 -4 -19 -1 -8 3 -5 6 6 6 11 1 17 -2
13 -5z m296 -1 c-51 -2 -136 -2 -190 0 -54 1 -12 3 92 3 105 0 149 -2 98 -3z
m884 1 c-3 -3 -12 -4 -19 -1 -8 3 -5 6 6 6 11 1 17 -2 13 -5z m1120 -14 c-17
-14 -24 -26 -20 -38 6 -14 5 -15 -9 -2 -14 14 -13 17 9 37 13 13 29 23 35 23
6 0 -1 -9 -15 -20z m256 13 c-40 -2 -106 -2 -145 0 -40 1 -8 3 72 3 80 0 112
-2 73 -3z m759 -15 c-7 -7 -12 -8 -12 -2 0 14 12 26 19 19 2 -3 -1 -11 -7 -17z
m16 -18 c-7 -10 -14 -17 -17 -15 -4 4 18 35 25 35 2 0 -1 -9 -8 -20z m-36 -19
c-4 -10 -7 -11 -10 -3 -2 7 -9 9 -14 6 -6 -4 -8 -3 -5 3 10 16 36 11 29 -6z
m881 2 c-7 -2 -9 -11 -6 -19 8 -20 -4 -17 -16 4 -8 15 -5 18 12 19 12 0 17 -1
10 -4z m-53 -29 c0 -30 -23 -28 -28 2 -3 16 -1 16 7 4 9 -13 11 -13 11 3 0 9
2 17 5 17 3 0 5 -12 5 -26z m84 2 c-6 -16 -24 -13 -24 5 0 6 5 7 10 4 6 -3 10
-1 10 6 0 7 2 10 5 7 3 -3 3 -13 -1 -22z m-897 -23 c-3 -10 -5 -4 -5 12 0 17
2 24 5 18 2 -7 2 -21 0 -30z m450 15 c-3 -8 -6 -5 -6 6 -1 11 2 17 5 13 3 -3
4 -12 1 -19z m336 -38 c-6 -7 -23 23 -23 40 0 8 6 4 13 -10 8 -14 12 -27 10
-30z m-4660 -1 c-6 -6 -9 -1 -7 13 3 33 6 36 11 14 3 -10 1 -22 -4 -27z m2842
32 c3 -5 1 -12 -5 -16 -5 -3 -10 1 -10 9 0 18 6 21 15 7z m1452 -13 c-3 -8 -6
-5 -6 6 -1 11 2 17 5 13 3 -3 4 -12 1 -19z m550 3 c0 -11 -5 -18 -9 -15 -4 3
-5 11 -1 19 7 21 12 19 10 -4z m-78 -36 c0 -5 -6 -1 -14 9 -8 11 -15 24 -15
30 0 5 7 1 15 -10 8 -10 14 -23 14 -29z m36 26 c-3 -6 -11 -11 -16 -11 -5 0
-4 6 3 14 14 16 24 13 13 -3z m75 -1 c0 -5 -2 -10 -4 -10 -3 0 -8 5 -11 10 -3
6 -1 10 4 10 6 0 11 -4 11 -10z m-599 -93 c1 -48 -1 -90 -5 -94 -3 -3 -6 38
-6 92 0 121 8 122 11 2z m104 -155 c-4 -34 -10 -60 -15 -57 -5 3 -4 20 1 38 5
17 10 86 11 152 l2 120 4 -95 c2 -52 0 -123 -3 -158z m-1598 214 c-7 -14 -13
-23 -15 -21 -7 6 9 45 18 45 4 0 3 -11 -3 -24z m1080 -113 c-2 -27 -3 -5 -3
47 0 52 1 74 3 48 2 -27 2 -69 0 -95z m820 75 c-2 -13 -4 -5 -4 17 -1 22 1 32
4 23 2 -10 2 -28 0 -40z m-1823 20 c15 -17 16 -20 2 -15 -9 4 -19 -1 -25 -11
-9 -14 -10 -13 -11 9 0 20 7 39 14 39 1 0 10 -10 20 -22z m913 -111 c-2 -23
-3 -1 -3 48 0 50 1 68 3 42 2 -26 2 -67 0 -90z m1133 118 c6 -8 9 -18 6 -23
-3 -5 3 -17 14 -27 16 -14 17 -20 8 -27 -18 -11 -28 -10 -28 3 0 5 5 7 11 3 7
-4 10 -1 7 7 -3 8 -11 13 -17 11 -7 -1 -10 2 -6 8 3 5 1 10 -4 10 -16 0 -13
-46 4 -60 8 -7 15 -18 15 -24 0 -6 -9 0 -21 14 -14 18 -18 35 -15 58 3 17 1
32 -4 32 -5 0 -7 7 -4 15 8 19 18 19 34 0z m-4903 -32 c-3 -10 -5 -4 -5 12 0
17 2 24 5 18 2 -7 2 -21 0 -30z m2747 21 c3 -8 2 -12 -4 -9 -6 3 -10 10 -10
16 0 14 7 11 14 -7z m-1736 -16 c7 -7 12 -31 12 -55 0 -38 -2 -43 -22 -42 -17
1 -19 2 -5 6 20 5 24 65 5 80 -15 11 -372 10 -403 -2 -17 -6 -17 -5 -5 5 12 9
10 10 -13 5 -19 -4 -26 -2 -22 5 9 15 437 14 453 -2z m321 8 c-12 -10 -60 -16
-54 -6 3 5 18 10 32 10 15 0 24 -2 22 -4z m399 -5 c21 -13 -25 -22 -55 -10
-13 5 -68 6 -121 3 -53 -3 -124 -1 -157 4 -50 8 -27 10 130 11 105 0 196 -3
203 -8z m1357 -1 c13 -6 -7 -9 -62 -9 -45 -1 -90 -4 -100 -7 -15 -5 -16 -4 -3
6 12 9 10 10 -13 5 -19 -4 -26 -2 -22 5 7 12 171 12 200 0z m80 0 c7 -12 -12
-12 -40 0 -18 8 -17 9 7 9 15 1 30 -3 33 -9z m1623 -15 c-3 -3 -9 2 -12 12 -6
14 -5 15 5 6 7 -7 10 -15 7 -18z m1107 -35 l0 -55 -196 -3 -196 -2 -7 -38 c-3
-20 -6 -85 -6 -144 l0 -108 -60 0 -60 0 0 182 c0 173 1 183 22 205 l22 23 240
-2 241 -3 0 -55z m1903 3 l-3 -58 -197 -3 -198 -2 -1 -28 c-2 -56 3 -77 23
-94 18 -16 43 -18 194 -18 197 0 198 0 193 -83 -4 -71 8 -67 -205 -67 -218 0
-245 6 -287 62 -34 44 -46 102 -47 216 0 139 -15 132 285 132 l246 0 -3 -57z
m-7262 30 c-2 -9 -7 -18 -13 -20 -6 -2 -8 -15 -5 -29 3 -20 7 -23 14 -12 8 10
9 10 5 -2 -2 -8 -10 -14 -16 -12 -9 2 -11 -34 -10 -129 0 -71 -2 -133 -5 -137
-4 -3 -6 66 -6 154 1 121 5 164 16 182 17 26 23 28 20 5z m706 -12 c-9 -16
-18 -28 -21 -26 -4 5 27 55 34 55 2 0 -4 -13 -13 -29z m1970 -19 c4 -13 -1
-18 -16 -20 -16 -1 -18 1 -6 8 13 8 13 12 1 32 -13 21 -13 22 1 10 9 -7 18
-21 20 -30z m-3315 -79 c-2 -21 -4 -4 -4 37 0 41 2 58 4 38 2 -21 2 -55 0 -75z
m1840 45 c-2 -13 -4 -3 -4 22 0 25 2 35 4 23 2 -13 2 -33 0 -45z m3093 32 c-7
-13 -6 -20 3 -23 9 -4 9 -6 0 -6 -18 -1 -26 18 -14 33 6 7 7 17 3 21 -4 5 -1
5 6 1 8 -5 9 -13 2 -26z m-2044 -20 c13 -5 24 -14 24 -20 0 -6 -13 -2 -30 10
-16 12 -30 27 -29 33 0 8 2 7 6 -1 3 -7 16 -17 29 -22z m64 20 c0 -5 -5 -10
-11 -10 -5 0 -7 5 -4 10 3 6 8 10 11 10 2 0 4 -4 4 -10z m-28 -17 c20 -18 24
-33 8 -33 -5 0 -10 6 -10 13 0 8 -10 19 -22 25 -13 6 -17 11 -9 11 8 1 23 -6
33 -16z m2047 -39 c-8 -10 -7 -21 5 -45 23 -46 14 -46 -12 0 -20 35 -20 40 -6
45 15 6 15 9 -1 34 l-16 27 21 -24 c15 -18 18 -27 9 -37z m78 32 c0 -8 -6 -12
-15 -9 -11 5 -11 7 0 14 7 5 13 9 14 9 0 0 1 -6 1 -14z m-1688 -126 c-1 -99
-21 -168 -40 -139 -5 9 -4 15 4 18 22 7 24 21 23 131 -1 59 2 103 7 97 4 -7 7
-55 6 -107z m1711 101 c0 -5 -9 -13 -20 -16 -11 -3 -20 -13 -20 -22 0 -14 3
-14 20 2 12 11 20 13 20 6 0 -7 4 -10 8 -7 4 3 23 -23 42 -56 18 -34 28 -58
21 -54 -6 4 -18 23 -25 41 -15 35 -44 43 -76 21 -12 -8 -13 -8 -2 4 14 17 16
34 2 25 -6 -3 -13 1 -17 11 -4 11 2 23 18 35 28 22 29 22 29 10z m-4973 -53
c-2 -13 -4 -5 -4 17 -1 22 1 32 4 23 2 -10 2 -28 0 -40z m1300 30 c-3 -8 -6
-5 -6 6 -1 11 2 17 5 13 3 -3 4 -12 1 -19z m693 -32 c0 -6 -7 -1 -15 10 -8 10
-14 26 -14 34 0 16 28 -28 29 -44z m457 32 c-3 -8 -6 -5 -6 6 -1 11 2 17 5 13
3 -3 4 -12 1 -19z m1350 -10 c-3 -7 -5 -2 -5 12 0 14 2 19 5 13 2 -7 2 -19 0
-25z m1113 12 c0 -5 -2 -10 -4 -10 -3 0 -8 5 -11 10 -3 6 -1 10 4 10 6 0 11
-4 11 -10z m-4305 -269 c-9 -9 -15 -11 -15 -4 0 7 5 15 10 18 15 9 12 25 -4
19 -8 -3 -17 -1 -20 4 -3 5 2 9 12 8 15 -1 18 13 22 114 l5 115 3 -129 c2
-106 0 -132 -13 -145z m2555 254 c6 17 7 17 12 -7 4 -24 3 -26 -13 -17 -11 5
-18 17 -18 27 1 13 2 13 7 -3 5 -20 5 -20 12 0z m-1933 -37 c-3 -7 -5 -2 -5
12 0 14 2 19 5 13 2 -7 2 -19 0 -25z m3673 22 c0 -5 -2 -10 -4 -10 -3 0 -8 5
-11 10 -3 6 -1 10 4 10 6 0 11 -4 11 -10z m-2460 -20 c9 -16 8 -18 -5 -14 -8
4 -15 12 -15 20 0 20 7 17 20 -6z m1833 0 c3 -11 1 -20 -4 -20 -5 0 -9 9 -9
20 0 11 2 20 4 20 2 0 6 -9 9 -20z m-2976 -32 c-3 -8 -6 -5 -6 6 -1 11 2 17 5
13 3 -3 4 -12 1 -19z m710 0 c-3 -8 -6 -5 -6 6 -1 11 2 17 5 13 3 -3 4 -12 1
-19z m1760 0 c-3 -8 -6 -5 -6 6 -1 11 2 17 5 13 3 -3 4 -12 1 -19z m1170 -13
c4 -4 2 -5 -4 -1 -15 9 -18 -10 -3 -19 6 -4 8 -11 5 -16 -6 -8 9 -13 29 -10 5
1 3 -5 -4 -14 -18 -21 -6 -30 14 -10 9 9 16 12 16 6 0 -6 -9 -15 -20 -21 -16
-9 -22 -6 -35 20 -8 16 -12 30 -8 30 5 0 2 4 -6 9 -19 12 -23 39 -5 37 7 -1
17 -6 21 -11z m-5041 -15 c0 -10 -2 -17 -4 -15 -3 2 -13 -7 -24 -20 -13 -17
-28 -24 -46 -24 l-27 2 28 4 c19 3 35 16 49 39 23 40 24 40 24 14z m2551 -17
c-3 -10 -5 -4 -5 12 0 17 2 24 5 18 2 -7 2 -21 0 -30z m1844 28 c5 8 9 9 9 3
0 -5 -6 -18 -12 -27 -12 -15 -13 -14 -14 10 -1 16 1 22 3 14 5 -11 7 -11 14 0z
m-1768 -27 c-5 -10 -14 -20 -21 -22 -8 -1 -11 2 -6 10 22 40 41 48 27 12z
m657 -19 c0 -3 -3 -5 -7 -4 -5 1 -7 6 -5 13 2 7 -1 7 -10 -2 -10 -10 -10 -16
0 -33 8 -12 11 -24 8 -27 -3 -3 -6 0 -6 7 0 7 -5 9 -12 5 -7 -4 -8 -3 -4 4 4
7 0 12 -11 13 -10 0 -13 3 -5 6 6 2 12 14 12 24 0 11 5 17 10 14 6 -3 10 2 11
12 0 14 2 14 9 -5 5 -12 10 -24 10 -27z m691 29 c2 2 14 -10 27 -25 13 -16 19
-29 13 -29 -5 0 -16 8 -23 19 -7 10 -20 17 -28 16 -9 -2 -16 5 -16 16 0 12 4
15 12 9 6 -6 13 -8 15 -6z m-2644 -76 c-2 -18 -4 -6 -4 27 0 33 2 48 4 33 2
-15 2 -42 0 -60z m732 70 c-1 -7 -1 -22 0 -33 1 -16 3 -17 10 -6 7 10 9 7 8
-12 -2 -35 -5 -34 -23 8 -17 41 -18 55 -4 55 6 0 10 -6 9 -12z m110 -18 c11
-24 11 -24 -3 -6 -9 11 -16 24 -16 30 0 12 5 7 19 -24z m2182 2 c-15 -28 -14
-35 5 -28 14 6 15 4 4 -9 -9 -11 -15 -12 -20 -5 -4 7 -19 9 -36 5 l-29 -6 32
15 c17 8 34 24 38 36 4 12 9 19 12 17 2 -3 0 -14 -6 -25z m-2921 -17 c0 -5 -5
-3 -10 5 -5 8 -10 20 -10 25 0 6 5 3 10 -5 5 -8 10 -19 10 -25z m1098 10 c1
-13 -3 -27 -9 -31 -8 -4 -9 1 -4 17 8 24 8 24 -14 5 -16 -15 -18 -21 -9 -28
10 -6 10 -8 0 -8 -7 0 -11 -4 -8 -9 4 -5 -4 -7 -16 -3 -21 5 -21 6 -2 13 10 4
14 8 7 8 -10 1 34 57 47 60 3 0 7 -10 8 -24z m49 -7 c-3 -8 -6 -5 -6 6 -1 11
2 17 5 13 3 -3 4 -12 1 -19z m1876 -4 c-4 -11 -9 -12 -19 -3 -19 15 -18 20 3
12 12 -5 14 -3 8 7 -5 8 -4 11 3 6 6 -4 9 -13 5 -22z m677 22 c0 -2 -8 -10
-17 -17 -16 -13 -17 -12 -4 4 13 16 21 21 21 13z m-5079 -29 c-10 -9 -11 -8
-5 6 3 10 9 15 12 12 3 -3 0 -11 -7 -18z m5 -34 c-14 -21 -26 -33 -26 -28 0 6
9 21 20 35 11 14 20 32 21 40 0 10 2 11 5 3 3 -7 -6 -29 -20 -50z m1331 35
c-3 -8 -6 -5 -6 6 -1 11 2 17 5 13 3 -3 4 -12 1 -19z m2517 14 c3 -5 -1 -9 -9
-9 -8 0 -12 4 -9 9 3 4 7 8 9 8 2 0 6 -4 9 -8z m-1357 -24 c-3 -8 -6 -5 -6 6
-1 11 2 17 5 13 3 -3 4 -12 1 -19z m-2899 -13 c-3 -3 -9 2 -12 12 -6 14 -5 15
5 6 7 -7 10 -15 7 -18z m386 10 c3 -8 1 -15 -4 -15 -6 0 -10 7 -10 15 0 8 2
15 4 15 2 0 6 -7 10 -15z m2191 4 c11 -17 2 -18 -19 -3 -17 12 -17 14 -4 14 9
0 20 -5 23 -11z m1104 -12 c0 -9 -2 -8 -6 1 -2 6 -10 9 -15 6 -7 -4 -8 -2 -4
5 9 13 26 5 25 -12z m-884 3 c-3 -5 -12 -10 -18 -10 -7 0 -6 4 3 10 19 12 23
12 15 0z m403 -4 c-7 -8 -15 -12 -17 -11 -5 6 10 25 20 25 5 0 4 -6 -3 -14z
m1050 -11 c-3 -3 -9 2 -12 12 -6 14 -5 15 5 6 7 -7 10 -15 7 -18z m362 11 c-1
-5 4 -13 12 -17 7 -5 9 -9 3 -9 -5 0 -17 5 -25 10 -13 9 -13 10 0 10 13 0 13
1 0 11 -10 7 -11 9 -2 7 8 -2 13 -7 12 -12z m-4250 -6 c0 -5 -5 -10 -11 -10
-5 0 -7 5 -4 10 3 6 8 10 11 10 2 0 4 -4 4 -10z m1397 -12 c-3 -8 -6 -5 -6 6
-1 11 2 17 5 13 3 -3 4 -12 1 -19z m1196 7 c-3 -9 -8 -14 -10 -11 -3 3 -2 9 2
15 9 16 15 13 8 -4z m1437 5 c9 -6 17 -5 21 1 3 6 9 2 11 -9 4 -14 2 -19 -7
-16 -6 3 -18 -2 -25 -11 -7 -8 -17 -15 -23 -15 -6 0 -7 3 -4 7 4 3 2 12 -3 18
-8 9 -3 11 17 8 l28 -4 -25 15 c-14 8 -20 15 -15 15 6 1 17 -3 25 -9z m290 0
c0 -5 -10 -10 -22 -9 -22 0 -22 1 -3 9 11 5 21 9 23 9 1 1 2 -3 2 -9z m65 0
c3 -5 -1 -10 -9 -10 -9 0 -16 5 -16 10 0 6 4 10 9 10 6 0 13 -4 16 -10z m35
-20 c-12 -16 -24 -30 -26 -30 -3 0 4 14 16 30 12 17 24 30 26 30 3 0 -4 -13
-16 -30z m-1875 1 c-3 -5 -1 -12 4 -15 5 -4 11 -1 14 6 3 9 4 9 3 -1 -1 -7
-12 -21 -25 -30 -20 -13 -23 -13 -19 -1 3 8 11 14 17 12 7 -1 10 2 6 8 -4 7
-13 7 -28 -1 -21 -10 -21 -9 2 10 25 22 36 27 26 12z m692 3 c-3 -3 -12 -4
-19 -1 -8 3 -5 6 6 6 11 1 17 -2 13 -5z m67 -46 c-3 -5 -15 -7 -27 -7 -18 1
-19 2 -4 6 14 4 17 11 13 31 l-6 27 14 -25 c8 -14 12 -28 10 -32z m604 42 c-2
-5 2 -10 7 -11 14 -1 35 -20 35 -31 0 -5 -14 0 -30 12 -17 12 -28 26 -25 31 8
12 16 12 13 -1z m442 6 c0 -3 -4 -8 -10 -11 -5 -3 -10 -1 -10 4 0 6 5 11 10
11 6 0 10 -2 10 -4z m-4440 -17 c0 -5 4 -8 9 -5 5 4 7 -3 4 -14 -5 -20 11 -28
20 -10 3 6 4 5 3 -2 -5 -24 -24 -18 -39 11 -9 17 -11 31 -6 31 5 0 9 -5 9 -11z
m396 -19 c-2 -29 -1 -30 42 -30 38 0 43 2 32 15 -7 9 -8 15 -2 15 16 0 23 -30
8 -36 -8 -3 -31 -4 -52 -2 -34 3 -39 6 -39 28 0 14 1 28 3 33 7 15 10 6 8 -23z
m2534 20 c0 -5 -4 -10 -10 -10 -5 0 -10 5 -10 10 0 6 5 10 10 10 6 0 10 -4 10
-10z m-2190 -11 c0 -4 -9 -7 -19 -6 -11 0 -18 4 -16 7 6 9 35 8 35 -1z m730 2
c0 -3 -4 -12 -9 -20 -10 -16 -41 -8 -40 11 0 10 2 10 6 1 2 -7 9 -13 15 -13 6
0 8 6 5 13 -3 8 1 14 9 14 8 0 14 -3 14 -6z m733 -10 c-2 -6 2 -11 9 -11 6 0
8 -3 5 -6 -8 -8 -37 14 -37 28 0 5 6 8 13 5 6 -2 11 -10 10 -16z m130 12 c-7
-2 -21 -2 -30 0 -10 3 -4 5 12 5 17 0 24 -2 18 -5z m170 0 c-7 -2 -21 -2 -30
0 -10 3 -4 5 12 5 17 0 24 -2 18 -5z m817 2 c0 -7 -39 -12 -49 -5 -7 4 1 7 18
8 17 0 31 -1 31 -3z m1500 -5 c-8 -5 -19 -10 -25 -10 -5 0 -3 5 5 10 8 5 20
10 25 10 6 0 3 -5 -5 -10z m30 -35 c-14 -17 -85 -20 -95 -5 -3 5 7 8 25 5 17
-2 28 0 25 6 -4 5 -4 9 -1 9 2 0 13 3 23 6 15 5 15 4 3 -5 -8 -5 -11 -13 -8
-16 11 -12 28 5 29 28 1 18 2 18 6 4 3 -10 -1 -24 -7 -32z m-4764 20 c-20 -15
-36 -19 -36 -10 0 5 38 23 50 24 3 0 -4 -6 -14 -14z m1345 -25 c7 0 10 -2 7
-5 -11 -12 -38 9 -37 29 0 21 0 21 9 -1 5 -13 15 -23 21 -23z m2646 16 c1 -12
-1 -15 -4 -8 -3 6 -8 10 -12 8 -4 -3 -8 1 -8 8 0 22 23 14 24 -8z m382 15 c16
-1 7 -14 -12 -17 -7 -1 -19 -5 -28 -9 -10 -3 -20 -2 -24 4 -4 7 1 8 12 4 15
-6 16 -4 5 9 -10 13 -9 15 10 13 13 -1 29 -3 37 -4z m-1865 -22 c-3 -5 -13 -9
-22 -8 -11 0 -12 2 -4 6 6 2 10 9 7 14 -4 5 1 6 9 3 9 -3 13 -10 10 -15z m364
6 c7 -14 33 -16 175 -13 92 2 167 0 167 -4 0 -5 -79 -8 -175 -8 -145 0 -175 2
-175 14 0 8 -10 17 -22 19 l-23 4 22 2 c12 0 26 -6 31 -14z m49 9 c-3 -3 -12
-4 -19 -1 -8 3 -5 6 6 6 11 1 17 -2 13 -5z m688 -4 c-3 -5 -12 -10 -18 -10 -7
0 -6 4 3 10 19 12 23 12 15 0z m1090 0 c3 -5 1 -10 -4 -10 -6 0 -11 5 -11 10
0 6 2 10 4 10 3 0 8 -4 11 -10z m-4085 -10 c0 -5 10 -10 22 -10 12 0 19 -3 15
-6 -9 -9 -57 5 -57 16 0 6 5 10 10 10 6 0 10 -4 10 -10z m60 -5 c0 -8 -2 -15
-4 -15 -2 0 -6 7 -10 15 -3 8 -1 15 4 15 6 0 10 -7 10 -15z m747 2 c-2 -6 -16
-12 -33 -14 -27 -4 -28 -3 -10 10 22 16 48 18 43 4z m750 7 c-3 -3 -12 -4 -19
-1 -8 3 -5 6 6 6 11 1 17 -2 13 -5z m1473 -6 c0 6 5 12 11 12 8 0 8 -5 -1 -15
-7 -8 -21 -15 -32 -15 -17 0 -18 2 -8 15 11 13 15 13 21 3 7 -10 9 -10 9 0z
m-1201 -9 c-8 -5 -61 -8 -119 -7 -72 1 -91 3 -60 7 73 10 194 10 179 0z m406
1 c3 -5 2 -10 -4 -10 -5 0 -13 5 -16 10 -3 6 -2 10 4 10 5 0 13 -4 16 -10z
m730 0 c3 -5 2 -10 -4 -10 -5 0 -13 5 -16 10 -3 6 -2 10 4 10 5 0 13 -4 16
-10z m494 -6 c10 -9 -35 -3 -49 6 -11 8 -7 9 15 4 17 -4 32 -8 34 -10z m216 6
c-3 -5 -18 -10 -33 -9 l-27 1 25 8 c35 11 42 11 35 0z m-4407 -7 c-10 -2 -26
-2 -35 0 -10 3 -2 5 17 5 19 0 27 -2 18 -5z m1086 -387 c42 -18 66 -51 66 -93
0 -68 -43 -113 -109 -113 -119 0 -155 159 -46 206 39 17 49 17 89 0z m1375 3
c33 -12 40 -29 18 -47 -8 -7 -18 -7 -27 -2 -40 26 -90 -4 -90 -53 0 -51 38
-79 84 -61 25 10 19 34 -9 34 -18 0 -25 5 -25 20 0 17 7 20 50 20 l50 0 0 -45
c0 -39 -4 -46 -30 -60 -69 -36 -147 -9 -170 60 -16 47 11 103 60 127 41 21 47
21 89 7z m1476 -3 c38 -16 43 -27 20 -46 -12 -10 -19 -10 -27 -2 -30 30 -98
-4 -98 -47 0 -11 11 -32 24 -48 23 -27 25 -27 61 -14 28 10 40 10 48 1 19 -19
-28 -50 -75 -50 -52 0 -108 51 -108 99 0 46 26 90 63 106 41 18 50 18 92 1z
m704 -2 c110 -44 76 -204 -43 -204 -128 0 -156 161 -36 209 34 13 34 13 79 -5z
m450 0 c27 -10 45 -26 55 -49 20 -41 20 -58 1 -95 -21 -41 -53 -60 -100 -60
-127 0 -154 161 -35 209 34 13 34 13 79 -5z m254 5 c37 -10 46 -26 26 -46 -8
-8 -18 -8 -34 -1 -55 25 -109 -27 -83 -79 17 -35 40 -47 71 -39 35 8 36 36 2
36 -18 0 -25 5 -25 20 0 17 7 20 45 20 l45 0 0 -48 c0 -43 -3 -50 -25 -60 -44
-20 -100 -15 -133 13 -61 51 -46 149 26 179 45 18 39 18 85 5z m352 -3 c37
-16 43 -27 22 -45 -10 -8 -22 -7 -44 1 -37 14 -60 6 -74 -26 -27 -59 22 -111
81 -86 24 10 34 10 43 1 20 -20 -27 -51 -77 -51 -85 1 -131 82 -90 161 14 28
61 58 92 59 7 0 28 -7 47 -14z m-5275 -16 c0 -18 -7 -20 -55 -20 -48 0 -55 -2
-55 -20 0 -17 7 -20 51 -20 47 0 50 -2 47 -22 -3 -20 -8 -23 -50 -22 -44 1
-48 0 -48 -22 0 -22 4 -24 55 -24 48 0 55 -2 55 -20 0 -18 -7 -20 -80 -20
l-80 0 0 105 0 105 80 0 c73 0 80 -2 80 -20z m126 -20 c15 -22 28 -40 30 -40
1 0 13 18 25 40 18 32 28 40 51 40 l28 0 0 -105 0 -105 -25 0 c-24 0 -25 3
-26 63 0 56 -1 60 -14 42 -45 -63 -40 -62 -69 -19 l-26 39 0 -63 c0 -59 -1
-62 -25 -62 l-25 0 0 105 0 105 25 0 c18 0 32 -11 51 -40z m319 28 c48 -22 46
-97 -5 -123 -16 -8 -40 -15 -55 -15 -21 0 -25 -5 -25 -30 0 -25 -4 -30 -25
-30 l-25 0 0 105 0 105 55 0 c30 0 66 -5 80 -12z m390 -55 c20 -72 17 -73 51
20 13 36 22 47 38 47 18 0 25 -11 40 -61 10 -33 22 -57 26 -52 4 4 15 32 25
61 14 44 20 52 41 52 13 0 24 -1 24 -2 0 -2 -15 -48 -34 -103 -30 -89 -36
-100 -57 -100 -20 0 -27 9 -42 58 -10 31 -22 55 -26 53 -4 -3 -16 -30 -26 -60
-15 -45 -23 -56 -41 -56 -18 0 -26 15 -57 105 l-36 105 28 0 c26 0 29 -5 46
-67z m445 47 c0 -18 -7 -20 -55 -20 -48 0 -55 -2 -55 -20 0 -17 7 -20 45 -20
32 0 47 -5 52 -15 8 -21 5 -23 -47 -27 -37 -3 -46 -7 -48 -26 -3 -20 0 -22 52
-22 49 0 56 -2 56 -20 0 -18 -7 -20 -80 -20 l-80 0 0 105 0 105 80 0 c73 0 80
-2 80 -20z m200 0 c26 -26 26 -72 0 -95 l-20 -18 20 -34 c25 -43 25 -43 -5
-43 -19 0 -31 10 -46 35 -12 20 -29 35 -40 35 -15 0 -19 -7 -19 -35 0 -31 -3
-35 -25 -35 l-25 0 0 105 0 105 70 0 c57 0 74 -4 90 -20z m120 -85 l0 -105
-25 0 -25 0 0 105 0 105 25 0 25 0 0 -105z m141 48 l44 -58 3 58 c3 53 5 57
27 57 25 0 25 0 25 -105 0 -102 -1 -105 -22 -105 -16 0 -36 19 -68 63 l-45 62
-3 -62 c-3 -59 -4 -63 -27 -63 -25 0 -25 0 -25 105 0 104 0 105 24 105 17 0
36 -16 67 -57z m649 37 c0 -16 -7 -20 -30 -20 l-30 0 0 -85 c0 -84 0 -85 -25
-85 -25 0 -25 1 -25 85 l0 85 -30 0 c-23 0 -30 4 -30 20 0 18 7 20 85 20 78 0
85 -2 85 -20z m90 -20 l0 -40 40 0 40 0 0 40 c0 36 3 40 25 40 l25 0 0 -105 0
-105 -25 0 c-22 0 -25 4 -25 40 l0 40 -40 0 -40 0 0 -40 c0 -36 -2 -40 -25
-40 l-25 0 0 105 0 105 25 0 c23 0 25 -4 25 -40z m340 20 c0 -18 -7 -20 -55
-20 -48 0 -55 -2 -55 -20 0 -17 7 -20 50 -20 43 0 50 -3 50 -19 0 -17 -8 -20
-47 -23 -40 -3 -48 -6 -48 -23 0 -17 8 -20 53 -23 44 -3 52 -6 52 -23 0 -17
-7 -19 -80 -19 l-80 0 0 105 0 105 80 0 c73 0 80 -2 80 -20z m300 0 c0 -16 -7
-20 -30 -20 l-30 0 0 -85 c0 -84 0 -85 -25 -85 -25 0 -25 1 -25 85 l0 85 -30
0 c-23 0 -30 4 -30 20 0 18 7 20 85 20 78 0 85 -2 85 -20z m200 0 c0 -18 -7
-20 -55 -20 -48 0 -55 -2 -55 -20 0 -17 7 -20 51 -20 46 0 50 -2 47 -22 -3
-18 -10 -22 -48 -22 -39 -1 -45 -4 -48 -23 -3 -22 0 -23 58 -23 53 0 61 -2 58
-17 -3 -15 -16 -18 -86 -21 l-82 -3 0 106 0 105 80 0 c73 0 80 -2 80 -20z
m320 -20 l0 -40 45 0 45 0 0 40 c0 36 3 40 25 40 l25 0 0 -105 0 -105 -25 0
c-22 0 -25 4 -25 40 l0 40 -45 0 -45 0 0 -41 c0 -36 -2 -40 -22 -37 -22 3 -23
8 -26 106 l-3 102 26 0 c23 0 25 -4 25 -40z m284 -22 l46 -62 0 62 c0 59 1 62
25 62 l25 0 0 -105 c0 -102 -1 -105 -22 -105 -16 0 -36 19 -68 63 l-45 62 -3
-63 c-3 -58 -4 -62 -27 -62 -25 0 -25 0 -25 105 0 104 0 105 24 105 18 0 36
-16 70 -62z m458 -20 l3 -83 48 -3 c39 -3 47 -6 47 -23 0 -17 -7 -19 -75 -19
l-75 0 0 105 c0 105 0 105 25 105 24 0 24 -2 27 -82z m688 -23 l0 -105 -25 0
-25 0 0 105 0 105 25 0 25 0 0 -105z m440 15 c55 -128 53 -120 24 -120 -17 0
-27 8 -34 25 -8 22 -16 25 -55 25 -39 0 -45 -3 -51 -25 -4 -18 -13 -25 -30
-25 -13 0 -24 2 -24 5 0 2 19 50 42 105 38 93 43 101 67 98 21 -3 31 -16 61
-88z m132 8 l3 -83 53 -3 c44 -3 52 -6 52 -23 0 -18 -6 -20 -77 -17 l-78 3 -3
103 -3 102 25 0 c25 0 25 -2 28 -82z m397 56 c38 -32 49 -80 27 -123 -22 -41
-64 -61 -131 -61 l-55 0 0 105 0 105 64 0 c55 0 69 -4 95 -26z m238 4 c29 -27
29 -57 2 -92 l-20 -26 20 -29 c27 -37 26 -41 -4 -41 -17 0 -32 10 -47 35 -31
47 -58 47 -58 0 0 -31 -3 -35 -25 -35 l-25 0 0 105 0 105 67 0 c55 0 71 -4 90
-22z m231 5 c-2 -14 -15 -19 -61 -21 -49 -3 -57 -6 -57 -22 0 -17 7 -20 50
-20 43 0 50 -3 50 -20 0 -16 -7 -20 -37 -20 -46 0 -68 -13 -60 -34 5 -12 20
-16 62 -16 48 0 55 -2 55 -20 0 -18 -7 -20 -85 -20 l-85 0 0 105 0 105 86 0
c76 0 85 -2 82 -17z m201 -80 c23 -54 41 -101 41 -105 0 -5 -11 -8 -24 -8 -17
0 -26 7 -30 25 -6 22 -12 25 -50 25 -36 0 -45 -4 -54 -25 -8 -17 -20 -25 -36
-25 l-25 0 35 83 c20 45 40 92 45 105 5 14 17 22 33 22 21 0 29 -12 65 -97z
m162 56 l27 -42 27 42 c20 29 35 41 51 41 24 0 24 -1 24 -105 l0 -105 -25 0
c-24 0 -25 3 -25 62 l0 63 -26 -39 c-29 -43 -24 -44 -69 19 -13 18 -14 14 -14
-42 -1 -60 -2 -63 -26 -63 l-25 0 0 105 0 105 28 0 c21 0 33 -10 53 -41z"/>
<path d="M8920 2922 c0 -12 19 -26 26 -19 2 2 -2 10 -11 17 -9 8 -15 8 -15 2z"/>
<path d="M4120 2862 c0 -5 7 -15 15 -22 8 -7 15 -8 15 -2 0 5 -7 15 -15 22 -8
7 -15 8 -15 2z"/>
<path d="M9060 2681 c0 -5 5 -13 10 -16 6 -3 10 -2 10 4 0 5 -4 13 -10 16 -5
3 -10 2 -10 -4z"/>
<path d="M9140 2505 c7 -9 15 -13 17 -11 7 7 -7 26 -19 26 -6 0 -6 -6 2 -15z"/>
<path d="M4972 1824 c-43 -30 -15 -114 38 -114 50 0 79 79 42 113 -23 21 -51
22 -80 1z"/>
<path d="M8527 1828 c-29 -23 -31 -62 -4 -94 22 -25 28 -27 53 -19 37 13 56
50 43 84 -16 42 -57 55 -92 29z"/>
<path d="M8977 1825 c-37 -36 -25 -95 23 -110 26 -8 66 16 75 46 16 49 -62
100 -98 64z"/>
<path d="M4750 1810 c0 -27 3 -30 30 -30 34 0 49 22 30 45 -7 8 -23 15 -36 15
-20 0 -24 -5 -24 -30z"/>
<path d="M5760 1810 c0 -25 4 -30 24 -30 37 0 56 10 56 30 0 20 -19 30 -56 30
-20 0 -24 -5 -24 -30z"/>
<path d="M9823 1790 c-11 -28 -10 -30 14 -30 21 0 23 3 18 23 -12 36 -20 38
-32 7z"/>
<path d="M10320 1774 l0 -66 33 6 c33 6 67 38 67 63 0 23 -47 63 -75 63 -24 0
-25 -2 -25 -66z"/>
<path d="M10560 1811 c0 -27 3 -31 28 -31 15 0 34 5 42 10 23 15 -1 44 -39 48
-29 3 -31 1 -31 -27z"/>
<path d="M11022 1795 c-15 -32 -12 -38 16 -33 18 3 19 6 8 32 l-12 29 -12 -28z"/>
</g>
</svg>
